<mxfile host="app.diagrams.net" modified="2021-03-07T20:13:32.312Z" agent="5.0 (Windows NT 10.0; Win64; x64) AppleWebKit/537.36 (KHTML, like Gecko) Chrome/88.0.4324.150 Safari/537.36 OPR/74.0.3911.160" etag="Nw_b1EVgFHyx5WlfNgDN" version="14.4.4" type="github">
  <diagram id="C5RBs43oDa-KdzZeNtuy" name="Page-1">
    <mxGraphModel dx="420" dy="792" grid="1" gridSize="10" guides="1" tooltips="1" connect="1" arrows="1" fold="1" page="1" pageScale="1" pageWidth="827" pageHeight="1169" math="0" shadow="0">
      <root>
        <mxCell id="WIyWlLk6GJQsqaUBKTNV-0" />
        <mxCell id="WIyWlLk6GJQsqaUBKTNV-1" parent="WIyWlLk6GJQsqaUBKTNV-0" />
        <mxCell id="V-I4ZGH9oPwpbEzWstbQ-2" value="Person" style="swimlane;childLayout=stackLayout;horizontal=1;startSize=30;horizontalStack=0;rounded=1;fontSize=14;fontStyle=0;strokeWidth=2;resizeParent=0;resizeLast=1;shadow=0;dashed=0;align=center;" vertex="1" parent="WIyWlLk6GJQsqaUBKTNV-1">
          <mxGeometry x="180" y="40" width="160" height="120" as="geometry" />
        </mxCell>
        <mxCell id="V-I4ZGH9oPwpbEzWstbQ-3" value="+Id&#xa;+Mail&#xa;+Password&#xa;+IsSurvey" style="align=left;strokeColor=none;fillColor=none;spacingLeft=4;fontSize=12;verticalAlign=top;resizable=0;rotatable=0;part=1;" vertex="1" parent="V-I4ZGH9oPwpbEzWstbQ-2">
          <mxGeometry y="30" width="160" height="90" as="geometry" />
        </mxCell>
        <mxCell id="V-I4ZGH9oPwpbEzWstbQ-7" value="Survey" style="swimlane;childLayout=stackLayout;horizontal=1;startSize=30;horizontalStack=0;rounded=1;fontSize=14;fontStyle=0;strokeWidth=2;resizeParent=0;resizeLast=1;shadow=0;dashed=0;align=center;" vertex="1" parent="WIyWlLk6GJQsqaUBKTNV-1">
          <mxGeometry x="380" y="40" width="160" height="280" as="geometry" />
        </mxCell>
        <mxCell id="V-I4ZGH9oPwpbEzWstbQ-8" value="+Id&#xa;+Mail&#xa;+Sex&#xa;+Age&#xa;+IsStudent&#xa;+University&#xa;+Department&#xa;+Class&#xa;+Place&#xa;+Level&#xa;+InterestArea&#xa;+SuccessArea&#xa;+DifficultyArea&#xa;+Hobby&#xa;+QuestionType&#xa;+LearningStill&#xa;+DeviceType" style="align=left;strokeColor=none;fillColor=none;spacingLeft=4;fontSize=12;verticalAlign=top;resizable=0;rotatable=0;part=1;" vertex="1" parent="V-I4ZGH9oPwpbEzWstbQ-7">
          <mxGeometry y="30" width="160" height="250" as="geometry" />
        </mxCell>
        <mxCell id="V-I4ZGH9oPwpbEzWstbQ-10" value="Çoktan seçmeli" style="swimlane;childLayout=stackLayout;horizontal=1;startSize=30;horizontalStack=0;rounded=1;fontSize=14;fontStyle=0;strokeWidth=2;resizeParent=0;resizeLast=1;shadow=0;dashed=0;align=center;" vertex="1" parent="WIyWlLk6GJQsqaUBKTNV-1">
          <mxGeometry x="180" y="280" width="160" height="120" as="geometry" />
        </mxCell>
        <mxCell id="V-I4ZGH9oPwpbEzWstbQ-11" value="+Id&#xa;+Question&#xa;+Answers&#xa;+TrueAnswers" style="align=left;strokeColor=none;fillColor=none;spacingLeft=4;fontSize=12;verticalAlign=top;resizable=0;rotatable=0;part=1;" vertex="1" parent="V-I4ZGH9oPwpbEzWstbQ-10">
          <mxGeometry y="30" width="160" height="90" as="geometry" />
        </mxCell>
        <mxCell id="V-I4ZGH9oPwpbEzWstbQ-12" value="Short Answer" style="swimlane;childLayout=stackLayout;horizontal=1;startSize=30;horizontalStack=0;rounded=1;fontSize=14;fontStyle=0;strokeWidth=2;resizeParent=0;resizeLast=1;shadow=0;dashed=0;align=center;" vertex="1" parent="WIyWlLk6GJQsqaUBKTNV-1">
          <mxGeometry x="180" y="420" width="160" height="120" as="geometry" />
        </mxCell>
        <mxCell id="V-I4ZGH9oPwpbEzWstbQ-13" value="+Id&#xa;+Question&#xa;+TrueAnswers" style="align=left;strokeColor=none;fillColor=none;spacingLeft=4;fontSize=12;verticalAlign=top;resizable=0;rotatable=0;part=1;" vertex="1" parent="V-I4ZGH9oPwpbEzWstbQ-12">
          <mxGeometry y="30" width="160" height="90" as="geometry" />
        </mxCell>
        <mxCell id="V-I4ZGH9oPwpbEzWstbQ-14" value="True/False" style="swimlane;childLayout=stackLayout;horizontal=1;startSize=30;horizontalStack=0;rounded=1;fontSize=14;fontStyle=0;strokeWidth=2;resizeParent=0;resizeLast=1;shadow=0;dashed=0;align=center;" vertex="1" parent="WIyWlLk6GJQsqaUBKTNV-1">
          <mxGeometry x="180" y="580" width="160" height="120" as="geometry" />
        </mxCell>
        <mxCell id="V-I4ZGH9oPwpbEzWstbQ-15" value="+Id&#xa;+Question&#xa;+Answers&#xa;+TrueAnswers" style="align=left;strokeColor=none;fillColor=none;spacingLeft=4;fontSize=12;verticalAlign=top;resizable=0;rotatable=0;part=1;" vertex="1" parent="V-I4ZGH9oPwpbEzWstbQ-14">
          <mxGeometry y="30" width="160" height="90" as="geometry" />
        </mxCell>
        <mxCell id="V-I4ZGH9oPwpbEzWstbQ-16" value="Long Answer" style="swimlane;childLayout=stackLayout;horizontal=1;startSize=30;horizontalStack=0;rounded=1;fontSize=14;fontStyle=0;strokeWidth=2;resizeParent=0;resizeLast=1;shadow=0;dashed=0;align=center;" vertex="1" parent="WIyWlLk6GJQsqaUBKTNV-1">
          <mxGeometry x="180" y="730" width="160" height="120" as="geometry" />
        </mxCell>
        <mxCell id="V-I4ZGH9oPwpbEzWstbQ-17" value="+Id&#xa;+Question&#xa;+TrueAnswers" style="align=left;strokeColor=none;fillColor=none;spacingLeft=4;fontSize=12;verticalAlign=top;resizable=0;rotatable=0;part=1;" vertex="1" parent="V-I4ZGH9oPwpbEzWstbQ-16">
          <mxGeometry y="30" width="160" height="90" as="geometry" />
        </mxCell>
        <mxCell id="V-I4ZGH9oPwpbEzWstbQ-18" value="Boşluk Doldurma" style="swimlane;childLayout=stackLayout;horizontal=1;startSize=30;horizontalStack=0;rounded=1;fontSize=14;fontStyle=0;strokeWidth=2;resizeParent=0;resizeLast=1;shadow=0;dashed=0;align=center;" vertex="1" parent="WIyWlLk6GJQsqaUBKTNV-1">
          <mxGeometry x="380" y="420" width="160" height="120" as="geometry" />
        </mxCell>
        <mxCell id="V-I4ZGH9oPwpbEzWstbQ-19" value="+Id&#xa;+Question&#xa;+TrueAnswers" style="align=left;strokeColor=none;fillColor=none;spacingLeft=4;fontSize=12;verticalAlign=top;resizable=0;rotatable=0;part=1;" vertex="1" parent="V-I4ZGH9oPwpbEzWstbQ-18">
          <mxGeometry y="30" width="160" height="90" as="geometry" />
        </mxCell>
        <mxCell id="V-I4ZGH9oPwpbEzWstbQ-20" value="Eşleştirme" style="swimlane;childLayout=stackLayout;horizontal=1;startSize=30;horizontalStack=0;rounded=1;fontSize=14;fontStyle=0;strokeWidth=2;resizeParent=0;resizeLast=1;shadow=0;dashed=0;align=center;" vertex="1" parent="WIyWlLk6GJQsqaUBKTNV-1">
          <mxGeometry x="380" y="580" width="160" height="120" as="geometry" />
        </mxCell>
        <mxCell id="V-I4ZGH9oPwpbEzWstbQ-21" value="+Id&#xa;+Question&#xa;+Answers&#xa;+TrueAnswers" style="align=left;strokeColor=none;fillColor=none;spacingLeft=4;fontSize=12;verticalAlign=top;resizable=0;rotatable=0;part=1;" vertex="1" parent="V-I4ZGH9oPwpbEzWstbQ-20">
          <mxGeometry y="30" width="160" height="90" as="geometry" />
        </mxCell>
        <mxCell id="V-I4ZGH9oPwpbEzWstbQ-24" value="Quiz" style="swimlane;childLayout=stackLayout;horizontal=1;startSize=30;horizontalStack=0;rounded=1;fontSize=14;fontStyle=0;strokeWidth=2;resizeParent=0;resizeLast=1;shadow=0;dashed=0;align=center;" vertex="1" parent="WIyWlLk6GJQsqaUBKTNV-1">
          <mxGeometry x="380" y="760" width="190" height="140" as="geometry" />
        </mxCell>
        <mxCell id="V-I4ZGH9oPwpbEzWstbQ-25" value="+Id&#xa;+Çoktan&#xa;+Kısa&#xa;+d/y&#xa;+uzun&#xa;+boşluk&#xa;+eşleştirme" style="align=left;strokeColor=none;fillColor=none;spacingLeft=4;fontSize=12;verticalAlign=top;resizable=0;rotatable=0;part=1;" vertex="1" parent="V-I4ZGH9oPwpbEzWstbQ-24">
          <mxGeometry y="30" width="190" height="110" as="geometry" />
        </mxCell>
      </root>
    </mxGraphModel>
  </diagram>
</mxfile>
